<svg width="16" height="18" viewBox="0 0 16 18" fill="none" xmlns="http://www.w3.org/2000/svg">
<path d="M10.2833 6.5L9.995 14M6.005 14L5.71667 6.5M14.0233 3.825C14.3083 3.86833 14.5917 3.91417 14.875 3.96333M14.0233 3.825L13.1333 15.3942C13.097 15.8652 12.8842 16.3051 12.5375 16.626C12.1908 16.9469 11.7358 17.1251 11.2633 17.125H4.73667C4.26425 17.1251 3.80919 16.9469 3.46248 16.626C3.11578 16.3051 2.90299 15.8652 2.86667 15.3942L1.97667 3.825M14.0233 3.825C13.0616 3.6796 12.0948 3.56925 11.125 3.49417M1.97667 3.825C1.69167 3.8675 1.40833 3.91333 1.125 3.9625M1.97667 3.825C2.93844 3.6796 3.9052 3.56925 4.875 3.49417M11.125 3.49417V2.73083C11.125 1.7475 10.3667 0.9275 9.38333 0.896666C8.46135 0.867198 7.53865 0.867198 6.61667 0.896666C5.63333 0.9275 4.875 1.74833 4.875 2.73083V3.49417M11.125 3.49417C9.04477 3.3334 6.95523 3.3334 4.875 3.49417" stroke="#FF5E01" stroke-width="1.5" stroke-linecap="round" stroke-linejoin="round"/>
</svg>
