<svg width="20" height="20" viewBox="0 0 20 20" fill="none" xmlns="http://www.w3.org/2000/svg">
<path d="M14.1667 4.99984H18.3334V6.6665H16.6667V17.4998C16.6667 17.9601 16.2936 18.3332 15.8334 18.3332H4.16669C3.70645 18.3332 3.33335 17.9601 3.33335 17.4998V6.6665H1.66669V4.99984H5.83335V2.49984C5.83335 2.0396 6.20645 1.6665 6.66669 1.6665H13.3334C13.7936 1.6665 14.1667 2.0396 14.1667 2.49984V4.99984ZM15 6.6665H5.00002V16.6665H15V6.6665ZM7.50002 9.1665H9.16669V14.1665H7.50002V9.1665ZM10.8334 9.1665H12.5V14.1665H10.8334V9.1665ZM7.50002 3.33317V4.99984H12.5V3.33317H7.50002Z" fill="#FF0000"/>
</svg>
