<svg width="24" height="24" viewBox="0 0 24 24" fill="none" xmlns="http://www.w3.org/2000/svg">
<path d="M22.8 11.575V22.8C22.8 23.4628 22.2628 24 21.6 24H2.4C1.73726 24 1.2 23.4628 1.2 22.8V11.575C0.453168 10.7288 0 9.61728 0 8.4V1.2C0 0.537264 0.537264 0 1.2 0H22.8C23.4628 0 24 0.537264 24 1.2V8.4C24 9.61728 23.5469 10.7288 22.8 11.575ZM20.4 13.0488C20.0165 13.1474 19.6144 13.2 19.2 13.2C17.7664 13.2 16.4795 12.5714 15.6 11.575C14.7205 12.5714 13.4336 13.2 12 13.2C10.5664 13.2 9.27953 12.5714 8.4 11.575C7.52047 12.5714 6.23363 13.2 4.8 13.2C4.38564 13.2 3.98354 13.1474 3.6 13.0488V21.6H20.4V13.0488ZM14.4 8.4C14.4 7.73726 14.9372 7.2 15.6 7.2C16.2628 7.2 16.8 7.73726 16.8 8.4C16.8 9.72552 17.8745 10.8 19.2 10.8C20.5255 10.8 21.6 9.72552 21.6 8.4V2.4H2.4V8.4C2.4 9.72552 3.47452 10.8 4.8 10.8C6.12548 10.8 7.2 9.72552 7.2 8.4C7.2 7.73726 7.73726 7.2 8.4 7.2C9.06274 7.2 9.6 7.73726 9.6 8.4C9.6 9.72552 10.6745 10.8 12 10.8C13.3255 10.8 14.4 9.72552 14.4 8.4Z" fill="white"/>
</svg>
